# xmcd
#
# Track frame offsets: 
#        150
#        4910
#        22297
#        62980
#        84605
#        101904
#        123504
#        143002
#
# Disc length: 2253 seconds
#
# Revision: 0
# Processed by: cddbd v1.5.2PL0 Copyright (c) Steve Scherf et al.
# Submitted via: ExactAudioCopyFreeDBPlugin 1.0
#
DISCID=7108cb08
DTITLE=คาราบาว - บางระจัน
DYEAR=1900
DGENRE=
TTITLE0=Intro บางระจัน
TTITLE1=บางระจันวันเพ็ญ
TTITLE2=บางระจัน (บรรเลง)
TTITLE3=พระเจ้าตาก
TTITLE4=นายขนมต้ม
TTITLE5=Aung San Suu Kyi
TTITLE6=Angkorwat
TTITLE7=บางระจัน (เปียโน)
EXTD=
EXTT0=
EXTT1=
EXTT2=
EXTT3=
EXTT4=
EXTT5=
EXTT6=
EXTT7=
PLAYORDER=
